<svg width="24" height="25" viewBox="0 0 24 25" fill="none" xmlns="http://www.w3.org/2000/svg">
<path d="M11.7188 3.84961C6.90234 3.84961 3 7.78711 3 12.5684C3 17.3848 6.90234 21.2871 11.7188 21.2871C16.5 21.2871 20.4375 17.3848 20.4375 12.5684C20.4375 7.78711 16.5 3.84961 11.7188 3.84961ZM17.4492 7.89258C18.5039 9.1582 19.1367 10.7754 19.1367 12.5332C18.8906 12.4629 16.4297 11.9707 13.9688 12.2871C13.7578 11.7949 13.582 11.373 13.3008 10.8105C16.0781 9.68555 17.3086 8.10352 17.4492 7.89258ZM16.6406 7.01367C16.5 7.22461 15.375 8.73633 12.7383 9.7207C11.5078 7.4707 10.1719 5.64258 9.96094 5.36133C12.3164 4.79883 14.8125 5.39648 16.6406 7.01367ZM8.51953 5.85352C8.73047 6.13477 10.0664 7.96289 11.2969 10.1777C7.81641 11.0918 4.75781 11.0918 4.40625 11.0566C4.89844 8.77148 6.44531 6.83789 8.51953 5.85352ZM4.26562 12.6035C4.26562 12.5332 4.26562 12.4629 4.26562 12.3574C4.58203 12.3926 8.20312 12.4277 11.8945 11.3027C12.1406 11.7246 12.3164 12.1465 12.5273 12.5684C9.82031 13.3418 7.35938 15.5215 6.16406 17.5605C4.96875 16.2598 4.26562 14.502 4.26562 12.6035ZM7.11328 18.4746C7.92188 16.8926 10.0312 14.8184 13.0195 13.7988C14.0742 16.5059 14.4961 18.791 14.6016 19.459C12.2109 20.4785 9.32812 20.1973 7.11328 18.4746ZM15.8672 18.7559C15.7969 18.334 15.375 16.1543 14.4258 13.4473C16.7461 13.0957 18.7852 13.6934 19.0664 13.7637C18.7148 15.8379 17.5195 17.6309 15.8672 18.7559Z" fill="#111827"/>
</svg>
