<svg width="24" height="25" viewBox="0 0 24 25" fill="none" xmlns="http://www.w3.org/2000/svg">
<path d="M8.80078 17.5605C8.80078 17.4902 8.73047 17.4199 8.625 17.4199C8.51953 17.4199 8.44922 17.4902 8.44922 17.5605C8.44922 17.6309 8.51953 17.7012 8.625 17.666C8.73047 17.666 8.80078 17.6309 8.80078 17.5605ZM7.71094 17.3848C7.71094 17.4551 7.78125 17.5605 7.88672 17.5605C7.95703 17.5957 8.0625 17.5605 8.09766 17.4902C8.09766 17.4199 8.0625 17.3496 7.95703 17.3145C7.85156 17.2793 7.74609 17.3145 7.71094 17.3848ZM9.29297 17.3496C9.1875 17.3496 9.11719 17.4199 9.11719 17.5254C9.11719 17.5957 9.22266 17.6309 9.32812 17.5957C9.43359 17.5605 9.50391 17.5254 9.46875 17.4551C9.46875 17.3848 9.36328 17.3145 9.29297 17.3496ZM11.5781 3.84961C6.72656 3.84961 3 7.57617 3 12.4277C3 16.3301 5.42578 19.6699 8.94141 20.8652C9.39844 20.9355 9.53906 20.6543 9.53906 20.4434C9.53906 20.1973 9.53906 19.002 9.53906 18.2637C9.53906 18.2637 7.07812 18.791 6.55078 17.209C6.55078 17.209 6.16406 16.1895 5.60156 15.9434C5.60156 15.9434 4.79297 15.3809 5.63672 15.3809C5.63672 15.3809 6.51562 15.4512 7.00781 16.2949C7.78125 17.666 9.04688 17.2793 9.57422 17.0332C9.64453 16.4707 9.85547 16.084 10.1367 15.8379C8.16797 15.627 6.16406 15.3457 6.16406 11.9707C6.16406 10.9863 6.44531 10.5293 7.00781 9.89648C6.90234 9.65039 6.62109 8.73633 7.11328 7.50586C7.81641 7.29492 9.53906 8.45508 9.53906 8.45508C10.2422 8.24414 10.9805 8.17383 11.7188 8.17383C12.4922 8.17383 13.2305 8.24414 13.9336 8.45508C13.9336 8.45508 15.6211 7.25977 16.3594 7.50586C16.8516 8.73633 16.5352 9.65039 16.4648 9.89648C17.0273 10.5293 17.3789 10.9863 17.3789 11.9707C17.3789 15.3457 15.3047 15.627 13.3359 15.8379C13.6523 16.1191 13.9336 16.6465 13.9336 17.4902C13.9336 18.6504 13.8984 20.127 13.8984 20.4082C13.8984 20.6543 14.0742 20.9355 14.5312 20.8301C18.0469 19.6699 20.4375 16.3301 20.4375 12.4277C20.4375 7.57617 16.4648 3.84961 11.5781 3.84961ZM6.41016 15.9785C6.33984 16.0137 6.375 16.1191 6.41016 16.1895C6.48047 16.2246 6.55078 16.2598 6.62109 16.2246C6.65625 16.1895 6.65625 16.084 6.58594 16.0137C6.51562 15.9785 6.44531 15.9434 6.41016 15.9785ZM6.02344 15.6973C5.98828 15.7676 6.02344 15.8027 6.09375 15.8379C6.16406 15.873 6.23438 15.873 6.26953 15.8027C6.26953 15.7676 6.23438 15.7324 6.16406 15.6973C6.09375 15.6621 6.05859 15.6621 6.02344 15.6973ZM7.14844 16.9629C7.11328 16.998 7.11328 17.1035 7.21875 17.1738C7.28906 17.2441 7.39453 17.2793 7.42969 17.209C7.46484 17.1738 7.46484 17.0684 7.39453 16.998C7.32422 16.9277 7.21875 16.8926 7.14844 16.9629ZM6.76172 16.4355C6.69141 16.4707 6.69141 16.5762 6.76172 16.6465C6.83203 16.7168 6.90234 16.752 6.97266 16.7168C7.00781 16.6816 7.00781 16.5762 6.97266 16.5059C6.90234 16.4355 6.83203 16.4004 6.76172 16.4355Z" fill="#111827"/>
</svg>
